<svg preserveAspectRatio="none" width="100%" height="100%" overflow="visible" style="display: block;" viewBox="0 0 56.0002 34.2004" fill="none" xmlns="http://www.w3.org/2000/svg">
<g id="Group 2">
<path id="Vector" d="M15.9998 6.59992H1.99997V27.3997H15.9998V6.59992Z" fill="#0F3D8A" fill-opacity="0.85" stroke="#EAF6FF" stroke-width="1.2"/>
<path id="Vector_2" d="M31 0.6H15.0001V27.3997H31V0.6Z" fill="#0F3D8A" fill-opacity="0.9" stroke="#EAF6FF" stroke-width="1.2"/>
<g id="Group">
<path id="Vector_3" d="M6.40006 9.79955H4.40008V11.7995H6.40006V9.79955Z" fill="#CFEAFF"/>
<path id="Vector_4" d="M10.0003 9.79955H8.0003V11.7995H10.0003V9.79955Z" fill="#CFEAFF"/>
<path id="Vector_5" d="M13.5998 9.79955H11.5999V11.7995H13.5998V9.79955Z" fill="#CFEAFF"/>
<path id="Vector_6" d="M6.40006 13.7995H4.40008V15.7995H6.40006V13.7995Z" fill="#CFEAFF"/>
<path id="Vector_7" d="M10.0003 13.7995H8.0003V15.7995H10.0003V13.7995Z" fill="#CFEAFF"/>
<path id="Vector_8" d="M13.5998 13.7995H11.5999V15.7995H13.5998V13.7995Z" fill="#CFEAFF"/>
<path id="Vector_9" d="M6.40006 17.7994H4.40008V19.7994H6.40006V17.7994Z" fill="#CFEAFF"/>
<path id="Vector_10" d="M10.0003 17.7994H8.0003V19.7994H10.0003V17.7994Z" fill="#CFEAFF"/>
<path id="Vector_11" d="M13.5998 17.7994H11.5999V19.7994H13.5998V17.7994Z" fill="#CFEAFF"/>
<path id="Vector_12" d="M19.5998 3.79963H17.5998V5.79961H19.5998V3.79963Z" fill="#CFEAFF"/>
<path id="Vector_13" d="M23.2 3.79963H21.2V5.79961H23.2V3.79963Z" fill="#CFEAFF"/>
<path id="Vector_14" d="M26.8002 3.79963H24.8002V5.79961H26.8002V3.79963Z" fill="#CFEAFF"/>
<path id="Vector_15" d="M30.3997 3.79963H28.3998V5.79961H30.3997V3.79963Z" fill="#CFEAFF"/>
<path id="Vector_16" d="M19.5998 7.79957H17.5998V9.79955H19.5998V7.79957Z" fill="#CFEAFF"/>
<path id="Vector_17" d="M23.2 7.79957H21.2V9.79955H23.2V7.79957Z" fill="#CFEAFF"/>
<path id="Vector_18" d="M26.8002 7.79957H24.8002V9.79955H26.8002V7.79957Z" fill="#CFEAFF"/>
<path id="Vector_19" d="M30.3997 7.79957H28.3998V9.79955H30.3997V7.79957Z" fill="#CFEAFF"/>
<path id="Vector_20" d="M19.5998 11.7995H17.5998V13.7995H19.5998V11.7995Z" fill="#CFEAFF"/>
<path id="Vector_21" d="M23.2 11.7995H21.2V13.7995H23.2V11.7995Z" fill="#CFEAFF"/>
<path id="Vector_22" d="M26.8002 11.7995H24.8002V13.7995H26.8002V11.7995Z" fill="#CFEAFF"/>
<path id="Vector_23" d="M30.3997 11.7995H28.3998V13.7995H30.3997V11.7995Z" fill="#CFEAFF"/>
<path id="Vector_24" d="M19.5998 15.7995H17.5998V17.7994H19.5998V15.7995Z" fill="#CFEAFF"/>
<path id="Vector_25" d="M23.2 15.7995H21.2V17.7994H23.2V15.7995Z" fill="#CFEAFF"/>
<path id="Vector_26" d="M26.8002 15.7995H24.8002V17.7994H26.8002V15.7995Z" fill="#CFEAFF"/>
<path id="Vector_27" d="M30.3997 15.7995H28.3998V17.7994H30.3997V15.7995Z" fill="#CFEAFF"/>
</g>
<path id="Vector_28" d="M30.9999 14.2001H42.9998L49.9997 20.6V27.3999H30.9999V14.2001Z" stroke="#EAF6FF" stroke-width="1.2" stroke-linejoin="round"/>
<path id="Vector_29" d="M34.0002 17.0002H40.0001V21.0001H34.0002V17.0002Z" stroke="#EAF6FF" stroke-width="0.8"/>
<path id="Vector_30" d="M0 30.2005H56" stroke="#EAF6FF" stroke-width="1.2"/>
<path id="Vector_31" d="M23.5999 33.6004C25.4776 33.6004 26.9999 32.0782 26.9999 30.2005C26.9999 28.3227 25.4776 26.8005 23.5999 26.8005C21.7221 26.8005 20.1999 28.3227 20.1999 30.2005C20.1999 32.0782 21.7221 33.6004 23.5999 33.6004Z" fill="#020610" stroke="#EAF6FF" stroke-width="1.2"/>
<path id="Vector_32" d="M23.5999 31.3004C24.2074 31.3004 24.6998 30.8079 24.6998 30.2004C24.6998 29.5929 24.2074 29.1004 23.5999 29.1004C22.9923 29.1004 22.4999 29.5929 22.4999 30.2004C22.4999 30.8079 22.9923 31.3004 23.5999 31.3004Z" fill="#EAF6FF"/>
<path id="Vector_33" d="M47.0003 33.6004C48.8781 33.6004 50.4003 32.0782 50.4003 30.2005C50.4003 28.3227 48.8781 26.8005 47.0003 26.8005C45.1226 26.8005 43.6003 28.3227 43.6003 30.2005C43.6003 32.0782 45.1226 33.6004 47.0003 33.6004Z" fill="#020610" stroke="#EAF6FF" stroke-width="1.2"/>
<path id="Vector_34" d="M47.0003 31.3004C47.6078 31.3004 48.1003 30.8079 48.1003 30.2004C48.1003 29.5929 47.6078 29.1004 47.0003 29.1004C46.3928 29.1004 45.9003 29.5929 45.9003 30.2004C45.9003 30.8079 46.3928 31.3004 47.0003 31.3004Z" fill="#EAF6FF"/>
</g>
</svg>
