<svg preserveAspectRatio="none" width="100%" height="100%" overflow="visible" style="display: block;" viewBox="0 0 54 36.8141" fill="none" xmlns="http://www.w3.org/2000/svg">
<g id="Group 3">
<path id="Vector" d="M27.8002 0.6V7.39993" stroke="#EAF6FF" stroke-width="1.2" stroke-linecap="round"/>
<path id="Vector_2" d="M24.5997 3.33799H30.9996" stroke="#EAF6FF" stroke-width="1.2" stroke-linecap="round"/>
<path id="Vector_3" d="M22.5997 7.73833H32.9996V9.73831H22.5997V7.73833Z" stroke="#EAF6FF"/>
<path id="Vector_4" d="M17.0002 9.7383H38.6V18.1382H17.0002V9.7383Z" fill="#0F3D8A" fill-opacity="0.88" stroke="#EAF6FF" stroke-width="1.2"/>
<path id="Vector_5" d="M22.2 11.3379V16.5378" stroke="#EAF6FF" stroke-width="0.8"/>
<path id="Vector_6" d="M27.8002 11.3379V16.5378" stroke="#EAF6FF" stroke-width="0.8"/>
<path id="Vector_7" d="M33.3997 11.3379V16.5378" stroke="#EAF6FF" stroke-width="0.8"/>
<path id="Vector_8" d="M7.79966 18.1379H51.7997L52.5997 19.7379H6.99966L7.79966 18.1379Z" fill="#0F3D8A" fill-opacity="0.9" stroke="#EAF6FF" stroke-width="1.2" stroke-linejoin="round"/>
<path id="Vector_9" d="M6.99966 19.7382H52.5997C51.3997 26.5382 43.7997 31.3382 29.7997 31.3382C15.7997 31.3382 8.19966 26.5382 6.99966 19.7382Z" fill="#0F3D8A" fill-opacity="0.92" stroke="#EAF6FF" stroke-width="1.2" stroke-linejoin="round"/>
<path id="Vector_10" d="M0.600004 32.5382C3.53334 29.8715 6.46667 29.8715 9.4 32.5382C12.3333 29.8715 15.2667 29.8715 18.2 32.5382C21.1333 29.8715 24.0667 29.8715 27 32.5382C29.9333 29.8715 32.8667 29.8715 35.8 32.5382C38.7333 29.8715 41.6667 29.8715 44.6 32.5382C47.5333 29.8715 50.4667 29.8715 53.4 32.5382" stroke="#EAF6FF" stroke-width="1.2" stroke-linecap="round"/>
<path id="Vector_11" opacity="0.6" d="M0.600004 36.1384C3.53334 33.4717 6.46667 33.4717 9.4 36.1384C12.3333 33.4717 15.2667 33.4717 18.2 36.1384C21.1333 33.4717 24.0667 33.4717 27 36.1384C29.9333 33.4717 32.8667 33.4717 35.8 36.1384C38.7333 33.4717 41.6667 33.4717 44.6 36.1384C47.5333 33.4717 50.4667 33.4717 53.4 36.1384" stroke="#EAF6FF" stroke-linecap="round"/>
</g>
</svg>
