<svg preserveAspectRatio="none" width="100%" height="100%" overflow="visible" style="display: block;" viewBox="0 0 56 24.8" fill="none" xmlns="http://www.w3.org/2000/svg">
<g id="Group 5">
<path id="Vector" d="M3.00029 7.00031H35V20.2002H3.00029V7.00031Z" stroke="#EAF6FF" stroke-width="1.2"/>
<path id="Vector_2" d="M3.00029 6.99993L9.00023 0.6" stroke="#EAF6FF" stroke-width="1.2"/>
<path id="Vector_3" d="M9.00021 0.6H34.9999" stroke="#EAF6FF" stroke-width="1.2"/>
<path id="Vector_4" d="M34.9999 0.6V6.99993" stroke="#EAF6FF" stroke-width="1.2"/>
<g id="Group">
<path id="Vector_5" d="M11.2006 9.80107H6.40067V12.601H11.2006V9.80107Z" fill="#1A5BB8" stroke="#CFEAFF" stroke-width="0.8"/>
<path id="Vector_6" d="M18.0007 9.80107H13.2007V12.601H18.0007V9.80107Z" fill="#1A5BB8" stroke="#CFEAFF" stroke-width="0.8"/>
<path id="Vector_7" d="M24.8007 9.80107H20.0008V12.601H24.8007V9.80107Z" fill="#1A5BB8" stroke="#CFEAFF" stroke-width="0.8"/>
<path id="Vector_8" d="M31.6007 9.80107H26.8008V12.601H31.6007V9.80107Z" fill="#1A5BB8" stroke="#CFEAFF" stroke-width="0.8"/>
<path id="Vector_9" d="M11.2006 14.6011H6.40067V17.4011H11.2006V14.6011Z" fill="#1A5BB8" stroke="#CFEAFF" stroke-width="0.8"/>
<path id="Vector_10" d="M18.0007 14.6011H13.2007V17.4011H18.0007V14.6011Z" fill="#1A5BB8" stroke="#CFEAFF" stroke-width="0.8"/>
<path id="Vector_11" d="M24.8007 14.6011H20.0008V17.4011H24.8007V14.6011Z" fill="#1A5BB8" stroke="#CFEAFF" stroke-width="0.8"/>
<path id="Vector_12" d="M31.6007 14.6011H26.8008V17.4011H31.6007V14.6011Z" fill="#1A5BB8" stroke="#CFEAFF" stroke-width="0.8"/>
</g>
<path id="Vector_13" d="M34.9999 10.2001H45.9998L51.9997 16.2001V20.2H34.9999V10.2001Z" fill="#0F3D8A" fill-opacity="0.85" stroke="#EAF6FF" stroke-width="1.2" stroke-linejoin="round"/>
<path id="Vector_14" d="M40.0001 18.0004C40.7733 18.0004 41.4001 17.3736 41.4001 16.6004C41.4001 15.8272 40.7733 15.2004 40.0001 15.2004C39.2269 15.2004 38.6001 15.8272 38.6001 16.6004C38.6001 17.3736 39.2269 18.0004 40.0001 18.0004Z" fill="#EAF6FF"/>
<path id="Vector_15" d="M0 20.2H56" stroke="#EAF6FF" stroke-width="1.2"/>
<path id="Vector_16" d="M13.9998 24.2C16.2089 24.2 17.9998 22.4091 17.9998 20.2C17.9998 17.9909 16.2089 16.2001 13.9998 16.2001C11.7907 16.2001 9.99987 17.9909 9.99987 20.2C9.99987 22.4091 11.7907 24.2 13.9998 24.2Z" fill="#020610" stroke="#EAF6FF" stroke-width="1.2"/>
<path id="Vector_17" d="M13.9998 21.6006C14.7729 21.6006 15.3997 20.9738 15.3997 20.2006C15.3997 19.4274 14.7729 18.8006 13.9998 18.8006C13.2266 18.8006 12.5998 19.4274 12.5998 20.2006C12.5998 20.9738 13.2266 21.6006 13.9998 21.6006Z" fill="#EAF6FF"/>
<path id="Vector_18" d="M23.9997 24.2C26.2088 24.2 27.9997 22.4091 27.9997 20.2C27.9997 17.9909 26.2088 16.2001 23.9997 16.2001C21.7906 16.2001 19.9997 17.9909 19.9997 20.2C19.9997 22.4091 21.7906 24.2 23.9997 24.2Z" fill="#020610" stroke="#EAF6FF" stroke-width="1.2"/>
<path id="Vector_19" d="M24.0003 21.6006C24.7735 21.6006 25.4003 20.9738 25.4003 20.2006C25.4003 19.4274 24.7735 18.8006 24.0003 18.8006C23.2271 18.8006 22.6003 19.4274 22.6003 20.2006C22.6003 20.9738 23.2271 21.6006 24.0003 21.6006Z" fill="#EAF6FF"/>
<path id="Vector_20" d="M45.6003 24.2C47.8094 24.2 49.6003 22.4091 49.6003 20.2C49.6003 17.9909 47.8094 16.2001 45.6003 16.2001C43.3912 16.2001 41.6004 17.9909 41.6004 20.2C41.6004 22.4091 43.3912 24.2 45.6003 24.2Z" fill="#020610" stroke="#EAF6FF" stroke-width="1.2"/>
<path id="Vector_21" d="M45.6003 21.6006C46.3735 21.6006 47.0002 20.9738 47.0002 20.2006C47.0002 19.4274 46.3735 18.8006 45.6003 18.8006C44.8271 18.8006 44.2003 19.4274 44.2003 20.2006C44.2003 20.9738 44.8271 21.6006 45.6003 21.6006Z" fill="#EAF6FF"/>
</g>
</svg>
