<svg preserveAspectRatio="none" width="100%" height="100%" overflow="visible" style="display: block;" viewBox="0 0 54.1132 29.2725" fill="none" xmlns="http://www.w3.org/2000/svg">
<g id="Group 4">
<path id="Vector" d="M18.2 0.6V10.5999" stroke="#EAF6FF" stroke-width="1.2" stroke-linecap="round"/>
<g id="Vector_2">
<path d="M14.2001 4.99968H22.2Z" fill="black"/>
<path d="M14.2001 4.99968H22.2" stroke="#EAF6FF" stroke-width="1.2" stroke-linecap="round"/>
</g>
<path id="Vector_3" d="M12.2001 10.5999H24.2V14.1998H12.2001V10.5999Z" fill="#0F3D8A" fill-opacity="0.88" stroke="#EAF6FF" stroke-width="1.2"/>
<path id="Vector_4" d="M18.2 10.5999V14.1998" stroke="#EAF6FF" stroke-width="0.8"/>
<path id="Vector_5" d="M6.5998 14.1994H29.7996L30.5995 15.3994H5.7998L6.5998 14.1994Z" fill="#0F3D8A" fill-opacity="0.9" stroke="#EAF6FF" stroke-width="1.2" stroke-linejoin="round"/>
<path id="Vector_6" d="M5.7998 15.3999H30.5995C29.7996 20.5999 24.1996 23.7998 18.1997 23.7998C12.1997 23.7998 6.5998 20.5999 5.7998 15.3999Z" fill="#0F3D8A" fill-opacity="0.92" stroke="#EAF6FF" stroke-width="1.2" stroke-linejoin="round"/>
<path id="Vector_7" d="M31 12.5999C36.9999 8.19998 43.3999 8.59998 46.5998 8.99997" stroke="#EAF6FF" stroke-width="1.3" stroke-linecap="round"/>
<path id="Vector_8" d="M47 11.1995C47.9941 11.1995 48.8 10.3937 48.8 9.39956C48.8 8.40546 47.9941 7.59958 47 7.59958C46.0059 7.59958 45.2 8.40546 45.2 9.39956C45.2 10.3937 46.0059 11.1995 47 11.1995Z" stroke="#EAF6FF" stroke-width="0.7"/>
<path id="Vector_9" opacity="0.9" d="M46.6001 8.99962C52.6 9.79962 55.8 14.9996 52.6 22.1995" stroke="#EAF6FF" stroke-width="0.5" stroke-linecap="round"/>
<path id="Vector_10" d="M52.6001 23.0994C53.0971 23.0994 53.5001 22.6965 53.5001 22.1994C53.5001 21.7024 53.0971 21.2994 52.6001 21.2994C52.103 21.2994 51.7001 21.7024 51.7001 22.1994C51.7001 22.6965 52.103 23.0994 52.6001 23.0994Z" fill="#EAF6FF"/>
<path id="Vector_11" d="M0.600005 24.9996C3.26667 22.5996 5.93334 22.5996 8.60001 24.9996C11.2667 22.5996 13.9333 22.5996 16.6 24.9996C19.2667 22.5996 21.9333 22.5996 24.6 24.9996C27.2667 22.5996 29.9333 22.5996 32.6 24.9996C35.2667 22.5996 37.9333 22.5996 40.6 24.9996" stroke="#EAF6FF" stroke-width="1.2" stroke-linecap="round"/>
<path id="Vector_12" opacity="0.6" d="M0.600005 28.5999C3.26667 26.1999 5.93334 26.1999 8.60001 28.5999C11.2667 26.1999 13.9333 26.1999 16.6 28.5999C19.2667 26.1999 21.9333 26.1999 24.6 28.5999C27.2667 26.1999 29.9333 26.1999 32.6 28.5999C35.2667 26.1999 37.9333 26.1999 40.6 28.5999" stroke="#EAF6FF" stroke-linecap="round"/>
</g>
</svg>
