<svg preserveAspectRatio="none" width="100%" height="100%" overflow="visible" style="display: block;" viewBox="0 0 56.0001 35.9998" fill="none" xmlns="http://www.w3.org/2000/svg">
<g id="Group 1">
<path id="Vector" d="M4.00006 12.1999L17.9999 0.6L31.9998 12.1999H4.00006Z" stroke="#EAF6FF" stroke-width="1.2" stroke-linejoin="round"/>
<path id="Vector_2" d="M29.0001 11.7997H7.00035V28.9995H29.0001V11.7997Z" fill="#0F3D8A" fill-opacity="0.85" stroke="#EAF6FF" stroke-width="1.2"/>
<path id="Vector_3" d="M12.4002 3.1999H9.60025V7.99985H12.4002V3.1999Z" stroke="#EAF6FF" stroke-width="1.2"/>
<g id="Group">
<path id="Vector_4" d="M13.8002 16.6002H10.6002V19.8001H13.8002V16.6002Z" fill="#1A5BB8" stroke="#CFEAFF" stroke-width="0.8"/>
<path id="Vector_5" d="M18.8004 16.6002H15.6005V19.8001H18.8004V16.6002Z" fill="#1A5BB8" stroke="#CFEAFF" stroke-width="0.8"/>
<path id="Vector_6" d="M13.8002 21.6004H10.6002V24.8004H13.8002V21.6004Z" fill="#1A5BB8" stroke="#CFEAFF" stroke-width="0.8"/>
<path id="Vector_7" d="M18.8004 21.6004H15.6005V24.8004H18.8004V21.6004Z" fill="#1A5BB8" stroke="#CFEAFF" stroke-width="0.8"/>
<path id="Vector_8" d="M23.5998 16.6002H20.3999V19.8001H23.5998V16.6002Z" fill="#1A5BB8" stroke="#CFEAFF" stroke-width="0.8"/>
<path id="Vector_9" d="M23.5998 21.6004H20.3999V24.8004H23.5998V21.6004Z" fill="#1A5BB8" stroke="#CFEAFF" stroke-width="0.8"/>
</g>
<path id="Vector_10" d="M29.0001 15.7997H40.9999L47.9999 22.1996V28.9995H29.0001V15.7997Z" stroke="#EAF6FF" stroke-width="1.2" stroke-linejoin="round"/>
<path id="Vector_11" d="M32.0004 18.5998H38.0003V22.5997H32.0004V18.5998Z" stroke="#EAF6FF" stroke-width="0.8"/>
<path id="Vector_12" d="M0.000115467 29H6.00005" stroke="#EAF6FF" stroke-width="1.2"/>
<path id="Vector_13" d="M0.000115467 31.8001H56.0001" stroke="#EAF6FF" stroke-width="1.2"/>
<path id="Vector_14" d="M21.5998 35.3998C23.588 35.3998 25.1998 33.7881 25.1998 31.7999C25.1998 29.8117 23.588 28.1999 21.5998 28.1999C19.6116 28.1999 17.9999 29.8117 17.9999 31.7999C17.9999 33.7881 19.6116 35.3998 21.5998 35.3998Z" fill="#020610" stroke="#EAF6FF" stroke-width="1.2"/>
<path id="Vector_15" d="M21.6002 32.9996C22.263 32.9996 22.8002 32.4623 22.8002 31.7996C22.8002 31.1369 22.263 30.5996 21.6002 30.5996C20.9375 30.5996 20.4002 31.1369 20.4002 31.7996C20.4002 32.4623 20.9375 32.9996 21.6002 32.9996Z" fill="#EAF6FF"/>
<path id="Vector_16" d="M45.6002 35.3998C47.5884 35.3998 49.2001 33.7881 49.2001 31.7999C49.2001 29.8117 47.5884 28.1999 45.6002 28.1999C43.612 28.1999 42.0002 29.8117 42.0002 31.7999C42.0002 33.7881 43.612 35.3998 45.6002 35.3998Z" fill="#020610" stroke="#EAF6FF" stroke-width="1.2"/>
<path id="Vector_17" d="M45.5999 32.9996C46.2626 32.9996 46.7999 32.4623 46.7999 31.7996C46.7999 31.1369 46.2626 30.5996 45.5999 30.5996C44.9372 30.5996 44.3999 31.1369 44.3999 31.7996C44.3999 32.4623 44.9372 32.9996 45.5999 32.9996Z" fill="#EAF6FF"/>
</g>
</svg>
