<svg preserveAspectRatio="none" width="100%" height="100%" overflow="visible" style="display: block;" viewBox="0 0 17 17" fill="none" xmlns="http://www.w3.org/2000/svg">
<g id="SVG">
<path id="Vector" d="M11.3333 2.125H5.66667C3.71066 2.125 2.125 3.71066 2.125 5.66667V11.3333C2.125 13.2893 3.71066 14.875 5.66667 14.875H11.3333C13.2893 14.875 14.875 13.2893 14.875 11.3333V5.66667C14.875 3.71066 13.2893 2.125 11.3333 2.125Z" stroke="#7FD8FF" stroke-width="1.275"/>
<path id="Vector_2" d="M8.49935 11.3327C10.0642 11.3327 11.3327 10.0642 11.3327 8.49935C11.3327 6.93454 10.0642 5.66602 8.49935 5.66602C6.93454 5.66602 5.66602 6.93454 5.66602 8.49935C5.66602 10.0642 6.93454 11.3327 8.49935 11.3327Z" stroke="#7FD8FF" stroke-width="1.275"/>
<path id="Vector_3" d="M12.3957 5.02969C12.6304 5.02969 12.8207 4.83941 12.8207 4.60469C12.8207 4.36997 12.6304 4.17969 12.3957 4.17969C12.161 4.17969 11.9707 4.36997 11.9707 4.60469C11.9707 4.83941 12.161 5.02969 12.3957 5.02969Z" fill="#7FD8FF"/>
</g>
</svg>
